<svg xmlns="http://www.w3.org/2000/svg" viewBox="0 0 1000 300" role="img" aria-label="Grades 3–5: When A Prank Crosses The Line"><rect width="1000" height="300" rx="12" fill="#f3f4f6"/><text x="20" y="38" fill="#232323" font-family="Arial,sans-serif" font-size="23" font-weight="bold"><tspan x="20" dy="0">PERMISSION</tspan></text><g transform="translate(100 75) scale(1.05)" fill="none" stroke="#232323" stroke-width="6" stroke-linejoin="round" stroke-linecap="round"><path d="M8 12h94v56H49L23 89V68H8Z"/><path d="M23 31h60M23 49h40"/></g><text x="20" y="235" fill="#232323" font-family="Arial,sans-serif" font-size="21" font-weight="normal"><tspan x="20" dy="0">Did the person clearly</tspan><tspan x="20" dy="25.62">agree?</tspan></text><text x="353" y="38" fill="#232323" font-family="Arial,sans-serif" font-size="23" font-weight="bold"><tspan x="353" dy="0">DIGNITY</tspan></text><g transform="translate(433 75) scale(1.05)" fill="none" stroke="#232323" stroke-width="6" stroke-linejoin="round" stroke-linecap="round"><rect x="28" y="5" width="47" height="85" rx="8"/><path d="M39 17h24M40 78h23M8 97 97 3"/></g><text x="353" y="235" fill="#232323" font-family="Arial,sans-serif" font-size="21" font-weight="normal"><tspan x="353" dy="0">Is their body and privacy</tspan><tspan x="353" dy="25.62">protected?</tspan></text><text x="686" y="38" fill="#232323" font-family="Arial,sans-serif" font-size="23" font-weight="bold"><tspan x="686" dy="0">SAFETY</tspan></text><g transform="translate(766 75) scale(1.05)" fill="none" stroke="#232323" stroke-width="6" stroke-linejoin="round" stroke-linecap="round"><path d="M25 77V33q0-8 7-8t7 8V18q0-8 7-8t7 8v14-9q0-8 7-8t7 8v15-5q0-8 7-8t7 8v47q-5 23-25 23H39q-15-9-23-29L8 60q-3-8 4-11 6-2 11 8l9 13"/></g><text x="686" y="235" fill="#232323" font-family="Arial,sans-serif" font-size="21" font-weight="normal"><tspan x="686" dy="0">Could this cause physical</tspan><tspan x="686" dy="25.62">risk?</tspan></text><path d="M335 70v190m330-190v190" stroke="#ccc" stroke-width="2"/></svg>