<svg xmlns="http://www.w3.org/2000/svg" viewBox="0 0 1000 300" role="img" aria-label="Grades 3–5: Repair Is An Action"><rect width="1000" height="300" rx="12" fill="#f3f4f6"/><rect x="9" y="15" width="232" height="270" rx="6" fill="white" stroke="#d3d7dc"/><text x="25" y="45" fill="#e21c24" font-family="Arial,sans-serif" font-size="22" font-weight="bold"><tspan x="25" dy="0">01</tspan></text><g transform="translate(78 77) scale(0.85)" fill="none" stroke="#232323" stroke-width="6" stroke-linejoin="round" stroke-linecap="round"><path d="M25 77V33q0-8 7-8t7 8V18q0-8 7-8t7 8v14-9q0-8 7-8t7 8v15-5q0-8 7-8t7 8v47q-5 23-25 23H39q-15-9-23-29L8 60q-3-8 4-11 6-2 11 8l9 13"/></g><text x="23" y="226" fill="#232323" font-family="Arial,sans-serif" font-size="20" font-weight="bold"><tspan x="23" dy="0">WE OWN OUR BODIES</tspan></text><rect x="259" y="15" width="232" height="270" rx="6" fill="white" stroke="#d3d7dc"/><text x="275" y="45" fill="#e21c24" font-family="Arial,sans-serif" font-size="22" font-weight="bold"><tspan x="275" dy="0">02</tspan></text><g transform="translate(328 77) scale(0.85)" fill="none" stroke="#232323" stroke-width="6" stroke-linejoin="round" stroke-linecap="round"><rect x="28" y="5" width="47" height="85" rx="8"/><path d="M39 17h24M40 78h23M8 97 97 3"/></g><text x="273" y="226" fill="#232323" font-family="Arial,sans-serif" font-size="20" font-weight="bold"><tspan x="273" dy="0">WE PROTECT PRIVACY</tspan></text><rect x="509" y="15" width="232" height="270" rx="6" fill="white" stroke="#d3d7dc"/><text x="525" y="45" fill="#e21c24" font-family="Arial,sans-serif" font-size="22" font-weight="bold"><tspan x="525" dy="0">03</tspan></text><g transform="translate(578 77) scale(0.85)" fill="none" stroke="#232323" stroke-width="6" stroke-linejoin="round" stroke-linecap="round"><circle cx="45" cy="23" r="16"/><path d="M13 91V65q32-40 64 0v26M83 18h25m-13-12v25"/></g><text x="523" y="226" fill="#232323" font-family="Arial,sans-serif" font-size="20" font-weight="bold"><tspan x="523" dy="0">WE ACT</tspan></text><rect x="759" y="15" width="232" height="270" rx="6" fill="white" stroke="#d3d7dc"/><text x="775" y="45" fill="#e21c24" font-family="Arial,sans-serif" font-size="22" font-weight="bold"><tspan x="775" dy="0">04</tspan></text><g transform="translate(828 77) scale(0.85)" fill="none" stroke="#232323" stroke-width="6" stroke-linejoin="round" stroke-linecap="round"><path d="M10 90h100M20 85V60h23v25m10 0V38h23v47m10 0V10h23v75M8 30l13 13 25-28"/></g><text x="773" y="226" fill="#232323" font-family="Arial,sans-serif" font-size="20" font-weight="bold"><tspan x="773" dy="0">WE REPAIR</tspan></text></svg>