<svg xmlns="http://www.w3.org/2000/svg" viewBox="0 0 1000 300" role="img" aria-label="Grades K–2: Repair Is An Action"><rect width="1000" height="300" rx="12" fill="#f3f4f6"/><circle cx="125" cy="135" r="85" fill="#ffe5cc"/><g transform="translate(76 78) scale(0.9)" fill="none" stroke="#232323" stroke-width="6" stroke-linejoin="round" stroke-linecap="round"><path d="M25 77V33q0-8 7-8t7 8V18q0-8 7-8t7 8v14-9q0-8 7-8t7 8v15-5q0-8 7-8t7 8v47q-5 23-25 23H39q-15-9-23-29L8 60q-3-8 4-11 6-2 11 8l9 13"/></g><text x="22" y="262" fill="#232323" font-family="Arial,sans-serif" font-size="22" font-weight="bold"><tspan x="22" dy="0">SAFE BODIES</tspan></text><circle cx="375" cy="135" r="85" fill="#fff1bd"/><g transform="translate(326 78) scale(0.9)" fill="none" stroke="#232323" stroke-width="6" stroke-linejoin="round" stroke-linecap="round"><rect x="28" y="5" width="47" height="85" rx="8"/><path d="M39 17h24M40 78h23M8 97 97 3"/></g><text x="272" y="262" fill="#232323" font-family="Arial,sans-serif" font-size="22" font-weight="bold"><tspan x="272" dy="0">PRIVACY</tspan></text><circle cx="625" cy="135" r="85" fill="#dfebf1"/><g transform="translate(576 78) scale(0.9)" fill="none" stroke="#232323" stroke-width="6" stroke-linejoin="round" stroke-linecap="round"><circle cx="45" cy="23" r="16"/><path d="M13 91V65q32-40 64 0v26M83 18h25m-13-12v25"/></g><text x="522" y="262" fill="#232323" font-family="Arial,sans-serif" font-size="22" font-weight="bold"><tspan x="522" dy="0">GET HELP</tspan></text><circle cx="875" cy="135" r="85" fill="#e3e9da"/><g transform="translate(826 78) scale(0.9)" fill="none" stroke="#232323" stroke-width="6" stroke-linejoin="round" stroke-linecap="round"><path d="M10 90h100M20 85V60h23v25m10 0V38h23v47m10 0V10h23v75M8 30l13 13 25-28"/></g><text x="772" y="262" fill="#232323" font-family="Arial,sans-serif" font-size="22" font-weight="bold"><tspan x="772" dy="0">MAKE IT RIGHT</tspan></text></svg>